<?xml version="1.0" encoding="UTF-8" standalone="no"?>
<!-- Created with Inkscape (http://www.inkscape.org/) -->

<svg
   xmlns:dc="http://purl.org/dc/elements/1.1/"
   xmlns:cc="http://creativecommons.org/ns#"
   xmlns:rdf="http://www.w3.org/1999/02/22-rdf-syntax-ns#"
   xmlns:svg="http://www.w3.org/2000/svg"
   xmlns="http://www.w3.org/2000/svg"
   xmlns:sodipodi="http://sodipodi.sourceforge.net/DTD/sodipodi-0.dtd"
   xmlns:inkscape="http://www.inkscape.org/namespaces/inkscape"
   width="281mm"
   height="297mm"
   viewBox="0 0 281 297"
   version="1.1"
   id="svg848"
   inkscape:version="0.92.4 (5da689c313, 2019-01-14)"
   sodipodi:docname="barred-eighth-notes.svg">
  <defs
     id="defs842" />
  <sodipodi:namedview
     id="base"
     pagecolor="#ffdfea"
     bordercolor="#666666"
     borderopacity="1.0"
     inkscape:pageopacity="0"
     inkscape:pageshadow="2"
     inkscape:zoom="0.35"
     inkscape:cx="-120.2336"
     inkscape:cy="680.10524"
     inkscape:document-units="mm"
     inkscape:current-layer="layer1"
     showgrid="false"
     inkscape:window-width="1920"
     inkscape:window-height="986"
     inkscape:window-x="-11"
     inkscape:window-y="-11"
     inkscape:window-maximized="1" />
  <metadata
     id="metadata845">
    <rdf:RDF>
      <cc:Work
         rdf:about="">
        <dc:format>image/svg+xml</dc:format>
        <dc:type
           rdf:resource="http://purl.org/dc/dcmitype/StillImage" />
        <dc:title></dc:title>
      </cc:Work>
    </rdf:RDF>
  </metadata>
  <g
     inkscape:label="Layer 1"
     inkscape:groupmode="layer"
     id="layer1">
    <g
       style="fill:none;fill-opacity:1"
       id="g833"
       transform="rotate(-23.561462,151.92097,97.221983)">
      <path
         sodipodi:nodetypes="cssssscccsssssccc"
         inkscape:connector-curvature="0"
         id="path827"
         d="m 43.089284,175.29166 c 0,0 -14.094898,-7.00394 -28.109492,-2.61235 -8.0050155,2.50844 -19.3599026,10.53229 -20.213088,26.43306 -0.9089668,16.94037 2.7605557,24.02284 10.0691121,31.67221 7.6178669,7.97311 20.4297039,7.99754 22.8216079,7.88024 6.948384,-0.34075 27.810886,-5.09159 30.078743,-25.88028 2.267857,-20.78869 1.219307,-136.882281 1.219307,-136.882281 L 197.44902,74.861932 198.89913,176.6772 c 0,0 -15.89262,-6.65458 -28.39495,-3.48099 -7.66705,1.9462 -19.95008,8.6066 -20.80213,28.05343 -0.64305,14.67677 2.69136,20.57184 8.99188,27.74579 7.06305,8.04219 22.16885,8.36051 24.71731,8.2767 4.72685,-0.15544 26.19459,-6.7449 28.84236,-23.88619 3.47494,-22.49629 -0.12925,-180.735794 -0.12925,-180.735794 l -169.0322,1.2312 z"
         style="fill:#ffffff;fill-opacity:1;stroke:#000000;stroke-width:2;stroke-linecap:butt;stroke-linejoin:miter;stroke-miterlimit:4;stroke-dasharray:none;stroke-opacity:1" />
    </g>
  </g>
</svg>
