<?xml version="1.0" encoding="UTF-8" standalone="no"?>
<!-- Created with Inkscape (http://www.inkscape.org/) -->

<svg
   xmlns:dc="http://purl.org/dc/elements/1.1/"
   xmlns:cc="http://creativecommons.org/ns#"
   xmlns:rdf="http://www.w3.org/1999/02/22-rdf-syntax-ns#"
   xmlns:svg="http://www.w3.org/2000/svg"
   xmlns="http://www.w3.org/2000/svg"
   xmlns:sodipodi="http://sodipodi.sourceforge.net/DTD/sodipodi-0.dtd"
   xmlns:inkscape="http://www.inkscape.org/namespaces/inkscape"
   width="64"
   height="64"
   viewBox="0 0 16.933333 16.933334"
   version="1.1"
   id="svg8"
   inkscape:version="0.92.4 (5da689c313, 2019-01-14)"
   sodipodi:docname="icon.svg">
  <defs
     id="defs2" />
  <sodipodi:namedview
     id="base"
     pagecolor="#ffffff"
     bordercolor="#666666"
     borderopacity="1.0"
     inkscape:pageopacity="0.0"
     inkscape:pageshadow="2"
     inkscape:zoom="1.979899"
     inkscape:cx="22.251253"
     inkscape:cy="77.810404"
     inkscape:document-units="mm"
     inkscape:current-layer="layer1"
     showgrid="false"
     units="px"
     inkscape:lockguides="false"
     inkscape:window-width="1920"
     inkscape:window-height="986"
     inkscape:window-x="-11"
     inkscape:window-y="-11"
     inkscape:window-maximized="1" />
  <metadata
     id="metadata5">
    <rdf:RDF>
      <cc:Work
         rdf:about="">
        <dc:format>image/svg+xml</dc:format>
        <dc:type
           rdf:resource="http://purl.org/dc/dcmitype/StillImage" />
        <dc:title></dc:title>
      </cc:Work>
    </rdf:RDF>
  </metadata>
  <g
     inkscape:label="Layer 1"
     inkscape:groupmode="layer"
     id="layer1"
     transform="translate(0,-280.06665)">
    <g
       id="g851"
       transform="matrix(1.082417,0,0,1.082417,-0.69779719,-24.219843)">
      <path
         sodipodi:nodetypes="cccccccc"
         inkscape:connector-curvature="0"
         id="path837"
         d="m 15.365361,293.31534 h -1.299922 l 0.01417,2.92932 -4.4175966,-2.92932 H 1.5679723 l -1e-7,-11.68072 H 15.365361 Z"
         style="opacity:1;fill:#ffdfea;fill-opacity:1;stroke:#000000;stroke-width:0.79374999;stroke-linejoin:round;stroke-miterlimit:4;stroke-dasharray:none;stroke-opacity:1" />
      <g
         transform="matrix(0.04803588,0.01839379,-0.01839379,0.04803588,8.592041,280.21107)"
         id="g833"
         style="fill:#000000;fill-opacity:1;stroke:none;stroke-width:4.59857607;stroke-miterlimit:4;stroke-dasharray:none;stroke-opacity:1">
        <path
           style="fill:#000000;fill-opacity:1;stroke:none;stroke-width:4.59857607;stroke-linecap:butt;stroke-linejoin:miter;stroke-miterlimit:4;stroke-dasharray:none;stroke-opacity:1"
           d="m 43.089284,175.29166 c 0,0 -14.094898,-7.00394 -28.109492,-2.61235 -8.0050155,2.50844 -19.3599026,10.53229 -20.213088,26.43306 -0.9089668,16.94037 2.7605557,24.02284 10.0691121,31.67221 7.6178669,7.97311 20.4297039,7.99754 22.8216079,7.88024 6.948384,-0.34075 28.340034,-5.09604 30.607891,-25.88473 2.267857,-20.78869 0.534539,-155.398011 0.534539,-155.398011 0,0 53.302506,14.273688 25.55925,67.875891 -4.913691,6.80357 -1.487347,16.73379 4.182295,18.24569 5.669638,1.51191 12.284231,2.45685 14.552091,-6.61458 C 114.97058,99.926222 110.8428,75.045549 94.812737,58.583163 77.484111,42.02469 43.09215,33.881316 43.09215,33.881316 Z"
           id="path827"
           inkscape:connector-curvature="0"
           sodipodi:nodetypes="csssssccccccc" />
      </g>
    </g>
  </g>
</svg>
