<?xml version="1.0" encoding="UTF-8" standalone="no"?>
<!-- Created with Inkscape (http://www.inkscape.org/) -->

<svg
   xmlns:dc="http://purl.org/dc/elements/1.1/"
   xmlns:cc="http://creativecommons.org/ns#"
   xmlns:rdf="http://www.w3.org/1999/02/22-rdf-syntax-ns#"
   xmlns:svg="http://www.w3.org/2000/svg"
   xmlns="http://www.w3.org/2000/svg"
   xmlns:xlink="http://www.w3.org/1999/xlink"
   xmlns:sodipodi="http://sodipodi.sourceforge.net/DTD/sodipodi-0.dtd"
   xmlns:inkscape="http://www.inkscape.org/namespaces/inkscape"
   width="391mm"
   height="210mm"
   viewBox="0 0 391 210"
   version="1.1"
   id="svg1114"
   inkscape:version="0.92.4 (5da689c313, 2019-01-14)"
   sodipodi:docname="songmsg_old.svg">
  <defs
     id="defs1108">
    <inkscape:path-effect
       effect="simplify"
       id="path-effect158"
       is_visible="true"
       steps="1"
       threshold="0.0277778"
       smooth_angles="360"
       helper_size="0"
       simplify_individual_paths="false"
       simplify_just_coalesce="false"
       simplifyindividualpaths="false"
       simplifyJustCoalesce="false" />
    <inkscape:path-effect
       effect="simplify"
       id="path-effect150"
       is_visible="true"
       steps="1"
       threshold="0.0277778"
       smooth_angles="360"
       helper_size="0"
       simplify_individual_paths="false"
       simplify_just_coalesce="false"
       simplifyindividualpaths="false"
       simplifyJustCoalesce="false" />
    <inkscape:path-effect
       effect="simplify"
       id="path-effect142"
       is_visible="true"
       steps="1"
       threshold="0.0277778"
       smooth_angles="360"
       helper_size="0"
       simplify_individual_paths="false"
       simplify_just_coalesce="false"
       simplifyindividualpaths="false"
       simplifyJustCoalesce="false" />
    <inkscape:path-effect
       effect="simplify"
       id="path-effect130"
       is_visible="true"
       steps="1"
       threshold="0.0277778"
       smooth_angles="360"
       helper_size="0"
       simplify_individual_paths="false"
       simplify_just_coalesce="false"
       simplifyindividualpaths="false"
       simplifyJustCoalesce="false" />
    <inkscape:path-effect
       effect="simplify"
       id="path-effect114"
       is_visible="true"
       steps="1"
       threshold="0.0277778"
       smooth_angles="360"
       helper_size="0"
       simplify_individual_paths="false"
       simplify_just_coalesce="false"
       simplifyindividualpaths="false"
       simplifyJustCoalesce="false" />
    <inkscape:path-effect
       effect="simplify"
       id="path-effect102"
       is_visible="true"
       steps="1"
       threshold="0.0277778"
       smooth_angles="360"
       helper_size="0"
       simplify_individual_paths="false"
       simplify_just_coalesce="false"
       simplifyindividualpaths="false"
       simplifyJustCoalesce="false" />
  </defs>
  <sodipodi:namedview
     id="base"
     pagecolor="#ffffff"
     bordercolor="#666666"
     borderopacity="1.0"
     inkscape:pageopacity="0.0"
     inkscape:pageshadow="2"
     inkscape:zoom="0.35"
     inkscape:cx="25.714286"
     inkscape:cy="560"
     inkscape:document-units="mm"
     inkscape:current-layer="layer1"
     showgrid="false"
     width="298mm"
     inkscape:window-width="1920"
     inkscape:window-height="986"
     inkscape:window-x="-11"
     inkscape:window-y="-11"
     inkscape:window-maximized="1" />
  <metadata
     id="metadata1111">
    <rdf:RDF>
      <cc:Work
         rdf:about="">
        <dc:format>image/svg+xml</dc:format>
        <dc:type
           rdf:resource="http://purl.org/dc/dcmitype/StillImage" />
        <dc:title></dc:title>
      </cc:Work>
    </rdf:RDF>
  </metadata>
  <g
     inkscape:label="Layer 1"
     inkscape:groupmode="layer"
     id="layer1"
     transform="translate(0,-87)">
    <path
       style="fill:none;stroke:#000000;stroke-width:0.26458332px;stroke-linecap:butt;stroke-linejoin:miter;stroke-opacity:1"
       d="m 73.138392,26.558036 c -13.59097,-7.389803 -32.569596,-10.520838 -45.206549,1.223309 -7.581941,7.046274 -9.126961,17.061853 -8.376764,27.155856 0.778485,10.474623 9.816346,19.666112 19.509118,21.604041 4.149113,0.829555 8.298225,1.659111 12.447338,2.488666"
       id="path100"
       inkscape:connector-curvature="0"
       inkscape:path-effect="#path-effect102"
       inkscape:original-d="M 73.138392,26.558036 C 63.672836,21.183485 51.44015,18.520143 40.63244,20.321428 27.66868,24.570863 23.491314,32.515069 19.371279,41.299105 18.973235,58.54748 18.527045,65.794281 36.745567,76.077665 l 14.765968,2.952243"
       sodipodi:nodetypes="ccccc"
       transform="translate(302.25421,115.78704)" />
    <path
       style="fill:none;stroke:#000000;stroke-width:0.26458332px;stroke-linecap:butt;stroke-linejoin:miter;stroke-opacity:1"
       d="M 73.138392,26.558036 C 69.736606,33.613592 66.334819,40.669147 62.933033,47.724703"
       id="path112"
       inkscape:connector-curvature="0"
       inkscape:path-effect="#path-effect114"
       inkscape:original-d="M 73.138392,26.558036 62.933033,47.724703"
       sodipodi:nodetypes="cc"
       transform="translate(302.25421,115.78704)" />
    <path
       style="fill:none;stroke:#000000;stroke-width:0.26458332px;stroke-linecap:butt;stroke-linejoin:miter;stroke-opacity:1"
       d="m 62.933033,47.724703 c -5.224612,-3.498846 -12.005605,-7.022122 -18.296335,-4.413114 -3.56184,1.477232 -5.504741,5.69256 -3.408829,9.631157 2.456975,4.6171 8.127663,4.708302 12.643554,5.498456 1.285104,0.224857 2.561048,0.508147 3.811867,0.880557"
       id="path128"
       inkscape:connector-curvature="0"
       inkscape:path-effect="#path-effect130"
       inkscape:original-d="m 62.933033,47.724703 c -13.418506,-9.200676 -22.126104,-5.047953 -23.14629,2.200224 3.564471,9.468213 9.332512,6.852338 17.896547,9.396832"
       sodipodi:nodetypes="ccc"
       transform="translate(302.25421,115.78704)" />
    <path
       style="fill:none;stroke:#000000;stroke-width:0.26458332px;stroke-linecap:butt;stroke-linejoin:miter;stroke-opacity:1"
       d="m 57.68329,59.321759 c 10.839276,2.094176 17.48577,12.024072 18.785464,23.158625 1.725151,14.779465 -10.131935,29.200496 -25.268111,30.097346 -9.719007,0.57587 -19.198085,-2.93916 -27.513909,-7.70985"
       id="path140"
       inkscape:connector-curvature="0"
       inkscape:path-effect="#path-effect142"
       inkscape:original-d="M 57.68329,59.321759 C 73.933404,63.793173 78.797989,75.148295 75.520889,93.542949 67.130645,115.33272 45.698233,117.57747 23.686734,104.86788"
       sodipodi:nodetypes="ccc"
       transform="translate(302.25421,115.78704)" />
    <path
       style="fill:none;stroke:#000000;stroke-width:0.26458332px;stroke-linecap:butt;stroke-linejoin:miter;stroke-opacity:1"
       d="m 51.511535,79.029908 c 3.640136,1.449104 6.761887,6.466222 3.894516,9.826422 -3.185818,3.733379 -8.864997,3.473351 -13.158277,1.78793 -3.185872,-1.250684 -6.270648,-2.74622 -9.304559,-4.326371"
       id="path148"
       inkscape:connector-curvature="0"
       inkscape:path-effect="#path-effect150"
       inkscape:original-d="m 51.511535,79.029908 c 7.397398,3.546547 6.852882,13.054425 -4.372438,12.92079 -3.608139,0 -14.195882,-5.632809 -14.195882,-5.632809"
       sodipodi:nodetypes="ccc"
       transform="translate(302.25421,115.78704)" />
    <path
       style="fill:none;stroke:#000000;stroke-width:0.26458332px;stroke-linecap:butt;stroke-linejoin:miter;stroke-opacity:1"
       d="m 32.943215,86.317889 c -3.085494,6.18333 -6.170987,12.366661 -9.256481,18.549991"
       id="path156"
       inkscape:connector-curvature="0"
       inkscape:path-effect="#path-effect158"
       inkscape:original-d="M 32.943215,86.317889 23.686734,104.86788"
       sodipodi:nodetypes="cc"
       transform="translate(302.25421,115.78704)" />
    <ellipse
       style="fill:none;stroke:#000000;stroke-width:0.26241413;stroke-miterlimit:4;stroke-dasharray:none;stroke-opacity:1"
       id="path52-9"
       cx="106.66252"
       cy="185.77599"
       rx="33.931202"
       ry="38.769157" />
    <path
       style="fill:none;stroke:#000000;stroke-width:0.26458332px;stroke-linecap:butt;stroke-linejoin:miter;stroke-opacity:1"
       d="m 150.1584,146.52164 -0.0783,78.2189 h 17.18748 l 0.0553,-22.77184 20.737,22.77658 17.42762,0.0195 -0.0472,-78.39977 -17.29815,-0.0554 -0.0688,43.37661 z"
       id="path4585"
       inkscape:connector-curvature="0"
       sodipodi:nodetypes="cccccccccc" />
    <path
       style="fill:none;stroke:#000000;stroke-width:0.26458332px;stroke-linecap:butt;stroke-linejoin:miter;stroke-opacity:1"
       d="m 278.41165,172.16547 c -1.75093,-16.1715 -12.38287,-26.52081 -29.01359,-26.49078 -25.7535,0.0465 -32.82448,21.75807 -34.10844,35.37323 -1.0394,28.89797 7.07172,50.41947 47.10553,40.86055 v 2.70117 h 16.11099 v -39.02601 l -17.32888,0.0334"
       id="path4651"
       inkscape:connector-curvature="0"
       sodipodi:nodetypes="cscccccc" />
    <path
       style="fill:none;stroke:#000000;stroke-width:0.26458332px;stroke-linecap:butt;stroke-linejoin:miter;stroke-opacity:1"
       d="m 260.81815,172.17694 c -3.11048,-10.16474 -11.78642,-8.47519 -13.99052,-8.41325 -6.65361,0.18697 -12.63329,8.51925 -14.09019,16.79161 -1.49475,22.44087 3.05765,31.75891 27.6571,25.14885 4.2095,-1.5368 5.92187,-7.26933 5.92187,-7.26933 h -5.19995 l 0.0608,-12.81778"
       id="path4653"
       inkscape:connector-curvature="0"
       sodipodi:nodetypes="csccccc" />
    <path
       style="fill:none;stroke:#000000;stroke-width:0.26458332px;stroke-linecap:butt;stroke-linejoin:miter;stroke-opacity:1"
       d="m 260.81815,172.17694 17.5935,-0.0115"
       id="path4655"
       inkscape:connector-curvature="0"
       sodipodi:nodetypes="cc" />
    <path
       inkscape:href="#path52-9-4"
       sodipodi:type="inkscape:offset"
       inkscape:radius="0"
       inkscape:original="M 129.19922 63.009766 A 33.931202 38.769157 0 0 0 95.267578 101.7793 A 33.931202 38.769157 0 0 0 129.19922 140.54883 A 33.931202 38.769157 0 0 0 163.13086 101.7793 A 33.931202 38.769157 0 0 0 129.19922 63.009766 z "
       xlink:href="#path52-9-4"
       style="fill:none;stroke:#000000;stroke-width:0.26241413;stroke-miterlimit:4;stroke-dasharray:none;stroke-opacity:1"
       id="path956"
       d="M 129.19922,63.009766 A 33.931202,38.769157 0 0 0 95.267578,101.7793 33.931202,38.769157 0 0 0 129.19922,140.54883 33.931202,38.769157 0 0 0 163.13086,101.7793 33.931202,38.769157 0 0 0 129.19922,63.009766 Z"
       transform="matrix(0.55661626,0,0,0.59798297,34.927588,125.2675)" />
    <path
       style="font-style:normal;font-weight:normal;font-size:40px;line-height:1.25;font-family:sans-serif;letter-spacing:0px;word-spacing:0px;fill:none;fill-opacity:1;stroke:#000000;stroke-width:0.31648368;stroke-opacity:1"
       d="m 38.532655,141.08736 c -20.124334,-2.22693 -33.317774,20.5755 -24.984376,37.91016 4.135648,9.78038 15.514863,11.98507 24.833985,13.54688 5.640816,0.66 13.086458,4.23616 11.294922,11.30468 -1.955574,8.7198 -13.517076,8.6307 -20.373047,6.86719 -5.039027,-1.32652 -9.408018,-4.46144 -12.837891,-8.32031 -2.442523,4.63864 -5.700886,10.34014 -8.0878892,14.0625 11.9141892,11.91935 32.6646022,14.91728 46.9785162,5.69137 10.711223,-7.79112 12.24229,-24.47173 5.417969,-35.24606 -7.119851,-10.57692 -21.552264,-8.83186 -31.67383,-14.2168 -6.15876,-5.02787 -1.316281,-15.56647 6.304687,-15.53711 7.63202,-1.41914 14.945397,2.60242 20.345704,7.65626 2.253074,-4.66367 4.179656,-8.33515 7.105469,-14.47657 -6.792697,-5.61187 -15.390784,-9.45402 -24.324219,-9.24219 z"
       id="flowRoot958"
       inkscape:connector-curvature="0"
       sodipodi:nodetypes="cccccccccccccc" />
  </g>
</svg>
