<?xml version="1.0" encoding="UTF-8" standalone="no"?>
<svg
   xmlns:dc="http://purl.org/dc/elements/1.1/"
   xmlns:cc="http://creativecommons.org/ns#"
   xmlns:rdf="http://www.w3.org/1999/02/22-rdf-syntax-ns#"
   xmlns:svg="http://www.w3.org/2000/svg"
   xmlns="http://www.w3.org/2000/svg"
   id="svg31"
   height="58.009884"
   width="59.058949"
   version="1.1"
   viewBox="0 0 59.058949 58.009884">
  <metadata
     id="metadata37">
    <rdf:RDF>
      <cc:Work
         rdf:about="">
        <dc:format>image/svg+xml</dc:format>
        <dc:type
           rdf:resource="http://purl.org/dc/dcmitype/StillImage" />
        <dc:title></dc:title>
      </cc:Work>
    </rdf:RDF>
  </metadata>
  <defs
     id="defs35" />
  <g
     transform="translate(-1.7595323,-1.921875)"
     id="surface1">
    <path
       id="path2"
       d="M 32.464844,3.035156 C 47.90625,3.84375 59.769531,17.015625 58.960938,32.460938 58.152344,47.902344 44.976563,59.765625 29.535156,58.957031 14.089844,58.148438 2.230469,44.972656 3.039063,29.53125 3.847656,14.085938 17.023438,2.222656 32.464844,3.035156 Z"
       style="fill:#97e0bb" />
    <path
       id="path4"
       d="m 31,53 c -0.394531,0 -0.785156,0 -1.179687,0 C 17.667969,52.675781 8.085938,42.558594 8.410156,30.410156 8.734375,18.257813 18.851563,8.675781 31,9 31.394531,9 31.785156,9 32.179688,9 44.332031,9.324219 53.914063,19.441406 53.589844,31.589844 53.265625,43.742188 43.148438,53.324219 31,53 Z"
       style="fill:#72caaf" />
    <path
       id="path6"
       d="m 46.179688,34.371094 c -0.578125,0.914062 -1.777344,1.199219 -2.710938,0.648437 -6.789062,-4.179687 -17.148437,-5.378906 -25.167969,-2.941406 -0.714843,0.363281 -1.574218,0.265625 -2.1875,-0.246094 C 15.5,31.320313 15.25,30.492188 15.476563,29.726563 c 0.230468,-0.765625 0.890625,-1.324219 1.683593,-1.417969 9.179688,-2.789063 20.589844,-1.4375 28.378907,3.363281 0.90625,0.578125 1.1875,1.773438 0.640625,2.699219 m 0.269531,-7.160156 c -8.148438,-4.832032 -21.578125,-5.28125 -29.347656,-2.921875 -1.25,0.382812 -2.570313,-0.320313 -2.953125,-1.570313 -0.378907,-1.246094 0.324218,-2.566406 1.570312,-2.949219 8.921875,-2.710937 23.761719,-2.191406 33.140625,3.378907 0.761719,0.414062 1.238281,1.207031 1.242188,2.070312 0,0.867188 -0.46875,1.664063 -1.230469,2.078125 -0.757813,0.417969 -1.683594,0.382813 -2.410156,-0.08594"
       style="fill:#faefde" />
    <path
       id="path8"
       d="M 31.929688,44.269531 C 31.390625,44.160156 30.859375,44.507813 30.75,45.050781 l -0.398437,2 c -0.113282,0.539063 0.238281,1.070313 0.777343,1.179688 H 31.25 c 0.503906,0.03906 0.960938,-0.304688 1.058594,-0.800781 l 0.402344,-2 c 0.09766,-0.535157 -0.25,-1.050782 -0.78125,-1.160157 z"
       style="fill:#8d6c9f" />
    <path
       id="path10"
       d="m 26.070313,43.851563 c -0.265625,0.01563 -0.515625,0.132812 -0.691407,0.332031 -0.175781,0.199219 -0.265625,0.460937 -0.25,0.726562 l 0.121094,2 c 0.02734,0.496094 0.414063,0.894532 0.910156,0.941407 h 0.140625 c 0.265625,-0.01563 0.511719,-0.136719 0.6875,-0.335938 0.179688,-0.199219 0.269532,-0.460937 0.25,-0.726562 l -0.117187,-2 c -0.03516,-0.546875 -0.503906,-0.96875 -1.050781,-0.9375 z"
       style="fill:#8d6c9f" />
    <path
       id="path12"
       d="m 21.628906,45.199219 c -0.171875,-0.523438 -0.738281,-0.808594 -1.265625,-0.632813 -0.523437,0.171875 -0.808593,0.738282 -0.632812,1.261719 l 0.628906,1.902344 c 0.175781,0.523437 0.742188,0.808594 1.265625,0.632812 0.523438,-0.171875 0.808594,-0.738281 0.636719,-1.261718 z"
       style="fill:#8d6c9f" />
    <path
       id="path14"
       d="m 37.480469,46.191406 c -0.496094,-0.246093 -1.09375,-0.04687 -1.339844,0.449219 L 35.25,48.429688 c -0.25,0.496093 -0.05078,1.097656 0.445313,1.34375 0.492187,0.25 1.097656,0.05078 1.34375,-0.445313 l 0.890625,-1.789062 c 0.121093,-0.238282 0.140625,-0.515625 0.05859,-0.769532 -0.08594,-0.253906 -0.269531,-0.460937 -0.507812,-0.578125 z"
       style="fill:#8d6c9f" />
    <path
       id="path16"
       d="m 39.371094,11.730469 c 0.683594,0.296875 1.351562,0.628906 2,1 0.480469,0.277344 1.09375,0.109375 1.367187,-0.371094 0.277344,-0.480469 0.113282,-1.09375 -0.367187,-1.371094 -0.714844,-0.402343 -1.449219,-0.765625 -2.199219,-1.089843 -0.332031,-0.164063 -0.726562,-0.132813 -1.027344,0.082031 -0.304687,0.210937 -0.460937,0.574219 -0.414062,0.941406 0.04687,0.367188 0.292969,0.679688 0.640625,0.808594 z"
       style="fill:#8d6c9f" />
    <path
       id="path18"
       d="m 25.320313,10.738281 c 0.08594,0.01172 0.171875,0.01172 0.257812,0 3.21875,-0.851562 6.589844,-0.933593 9.84375,-0.238281 0.550781,0.117188 1.09375,-0.238281 1.207031,-0.789062 C 36.746094,9.15625 36.390625,8.617188 35.839844,8.5 c -3.558594,-0.761719 -7.25,-0.671875 -10.769531,0.261719 -0.550782,0.070312 -0.941407,0.574219 -0.871094,1.128906 0.07422,0.550781 0.578125,0.941406 1.128906,0.871094 z"
       style="fill:#8d6c9f" />
    <path
       id="path20"
       d="M 32.519531,2 C 22.117188,1.367188 12.171875,6.367188 6.476563,15.09375 0.777344,23.820313 0.203125,34.9375 4.96875,44.207031 c 4.765625,9.269532 14.136719,15.269532 24.550781,15.714844 0.515625,0 1.027344,0 1.539063,0 16.019531,0.414063 29.335937,-12.234375 29.75,-28.25 0.414062,-16.019531 -12.230469,-29.335937 -28.25,-29.75 z M 58,32.410156 C 57.203125,47.289063 44.5,58.710938 29.617188,57.929688 14.738281,57.144531 3.304688,44.453125 4.074219,29.570313 4.84375,14.6875 17.527344,3.242188 32.410156,4 39.574219,4.363281 46.300781,7.566406 51.101563,12.894531 55.902344,18.226563 58.382813,25.246094 58,32.410156 Z"
       style="fill:#8d6c9f" />
    <path
       id="path22"
       d="m 49.351563,23.289063 c -9.613282,-5.710938 -24.800782,-6.25 -33.941407,-3.480469 -1.777343,0.554687 -2.765625,2.441406 -2.214843,4.214844 0.550781,1.777343 2.4375,2.769531 4.214843,2.214843 7.558594,-2.296875 20.628907,-1.878906 28.550782,2.820313 0.515625,0.308594 1.105468,0.472656 1.710937,0.472656 0.285156,0 0.570313,-0.03906 0.847656,-0.109375 0.84375,-0.226562 1.5625,-0.777344 2,-1.53125 0.941407,-1.59375 0.417969,-3.648437 -1.167968,-4.601562 z m -0.542969,3.589843 C 48.632813,27.183594 48.339844,27.402344 48,27.488281 47.660156,27.570313 47.300781,27.519531 47,27.339844 41.789063,24.25 34.5,22.898438 27.808594,22.898438 c -3.714844,-0.05469 -7.417969,0.425781 -11,1.421875 -0.71875,0.21875 -1.484375,-0.183594 -1.703125,-0.90625 -0.222656,-0.71875 0.183594,-1.484375 0.90625,-1.703125 8.71875,-2.652344 23.199219,-2.140625 32.339844,3.289062 0.644531,0.394531 0.851562,1.234375 0.457031,1.878906 z"
       style="fill:#8d6c9f" />
    <path
       id="path24"
       d="m 46.058594,31.820313 c -8,-4.941407 -19.757813,-6.332032 -29.1875,-3.46875 -0.757813,0.222656 -1.390625,0.742187 -1.761719,1.4375 -0.371094,0.695312 -0.453125,1.507812 -0.230469,2.261718 0.480469,1.5625 2.128907,2.453125 3.699219,2 7.792969,-2.371093 17.800781,-1.199218 24.371094,2.839844 0.464844,0.28125 0.996094,0.429688 1.539062,0.429688 1.027344,-0.01563 1.972657,-0.550782 2.511719,-1.421875 0.417969,-0.667969 0.546875,-1.480469 0.359375,-2.25 C 47.1875,32.890625 46.71875,32.230469 46.058594,31.820313 Z m -0.730469,3 C 45.042969,35.265625 44.460938,35.410156 44,35.148438 38.886719,32.234375 33.085938,30.742188 27.199219,30.828125 24.085938,30.8125 20.988281,31.25 18,32.128906 c -0.242187,0.07031 -0.503906,0.04687 -0.730469,-0.07031 -0.222656,-0.121094 -0.390625,-0.324219 -0.46875,-0.570313 -0.140625,-0.511718 0.144532,-1.042968 0.648438,-1.207031 8.921875,-2.710937 20,-1.402344 27.582031,3.257813 0.210938,0.128906 0.363281,0.339843 0.417969,0.582031 0.05469,0.25 0.01172,0.511719 -0.121094,0.730469 z"
       style="fill:#8d6c9f" />
    <path
       id="path26"
       d="M 38.871094,42.808594 C 33.148438,40.5 26.890625,39.832031 20.808594,40.890625 c -1.027344,0.183594 -2.027344,-0.457031 -2.289063,-1.46875 -0.113281,-0.519531 -0.01172,-1.058594 0.289063,-1.496094 0.296875,-0.4375 0.757812,-0.730468 1.28125,-0.816406 6.691406,-1.148437 14.289062,-0.847656 20.511719,2.339844 0.90625,0.464844 1.285156,1.566406 0.847656,2.492187 -0.5,0.917969 -1.625,1.300782 -2.578125,0.867188 z"
       style="fill:#faefde" />
    <path
       id="path28"
       d="M 39.71875,44 C 39.292969,44.0039 38.871094,43.91406 38.480469,43.738281 33,41.277344 26.875,40.625 21,41.878906 20.25,42.039063 19.472656,41.894531 18.832031,41.476563 18.191406,41.054688 17.742188,40.398438 17.589844,39.648438 17.40625,38.867188 17.554688,38.042969 18,37.371094 c 0.460938,-0.6875 1.183594,-1.15625 2,-1.292969 8,-1.628906 15.210938,-0.769531 21.109375,2.441406 1.390625,0.722657 1.960938,2.414063 1.289063,3.832032 C 41.914063,43.382813 40.863281,44.03125 39.71875,44 Z M 39.25,41.898438 c 0.480469,0.238281 1.0625,0.05469 1.320313,-0.417969 0.1875,-0.4375 0.0039,-0.945313 -0.421875,-1.160156 -5,-2.921875 -12.117188,-3.851563 -19.917969,-2.25 -0.269531,0.04687 -0.507813,0.203125 -0.660156,0.429687 -0.128907,0.199219 -0.171875,0.441406 -0.121094,0.671875 0.125,0.527344 0.648437,0.859375 1.179687,0.75 6.257813,-1.347656 12.78125,-0.648437 18.609375,2 z"
       style="fill:#8d6c9f" />
  </g>
</svg>
